<svg width="60" height="60" viewBox="0 0 60 60" fill="none" xmlns="http://www.w3.org/2000/svg">
<g clip-path="url(#clip0_34_563)">
<rect width="60" height="60" rx="30" fill="#9747FF"/>
<path d="M24.3781 22.314C24.3537 23.0523 24.4749 23.7882 24.7348 24.4796C24.9948 25.171 25.3884 25.8045 25.8932 26.3438C26.398 26.8831 27.004 27.3177 27.6768 27.6228C28.3495 27.9279 29.0757 28.0975 29.814 28.1219C30.5523 28.1463 31.2882 28.0251 31.9796 27.7652C32.671 27.5052 33.3045 27.1116 33.8438 26.6068C34.3831 26.102 34.8177 25.496 35.1228 24.8232C35.4279 24.1505 35.5975 23.4243 35.6219 22.686C35.6463 21.9477 35.5251 21.2118 35.2652 20.5204C35.0052 19.829 34.6116 19.1955 34.1068 18.6562C33.602 18.1169 32.996 17.6823 32.3232 17.3772C31.6505 17.0721 30.9243 16.9025 30.186 16.8781C29.4477 16.8537 28.7118 16.9749 28.0204 17.2348C27.329 17.4948 26.6955 17.8884 26.1562 18.3932C25.6169 18.898 25.1823 19.504 24.8772 20.1768C24.5721 20.8495 24.4025 21.5757 24.3781 22.314Z" stroke="white" stroke-width="4" stroke-linecap="round" stroke-linejoin="round"/>
<path d="M41.25 43.125C40.3284 40.905 38.7676 39.0075 36.7651 37.6725C34.7626 36.3375 32.4084 35.625 30 35.625C27.5916 35.625 25.2374 36.3375 23.2349 37.6725C21.2324 39.0075 19.6716 40.905 18.75 43.125" stroke="white" stroke-width="4" stroke-linecap="round" stroke-linejoin="round"/>
</g>
<defs>
<clipPath id="clip0_34_563">
<rect width="60" height="60" rx="30" fill="white"/>
</clipPath>
</defs>
</svg>
