<svg width="60" height="60" viewBox="0 0 60 60" fill="none" xmlns="http://www.w3.org/2000/svg">
<rect width="60" height="60" rx="30" fill="#9747FF"/>
<path d="M25.144 22.368V39H22.12V24.96H15.016V39H11.992V22.368H25.144ZM31.7368 30.672C31.7368 31.584 31.8488 32.416 32.0728 33.168C32.2968 33.904 32.6168 34.536 33.0328 35.064C33.4648 35.576 33.9848 35.976 34.5928 36.264C35.2008 36.552 35.8888 36.696 36.6568 36.696C37.4088 36.696 38.0888 36.552 38.6968 36.264C39.3048 35.976 39.8168 35.576 40.2328 35.064C40.6648 34.536 40.9928 33.904 41.2168 33.168C41.4408 32.416 41.5528 31.584 41.5528 30.672C41.5528 29.76 41.4408 28.936 41.2168 28.2C40.9928 27.448 40.6648 26.816 40.2328 26.304C39.8168 25.776 39.3048 25.368 38.6968 25.08C38.0888 24.792 37.4088 24.648 36.6568 24.648C35.8888 24.648 35.2008 24.792 34.5928 25.08C33.9848 25.368 33.4648 25.776 33.0328 26.304C32.6168 26.832 32.2968 27.464 32.0728 28.2C31.8488 28.936 31.7368 29.76 31.7368 30.672ZM44.7208 30.672C44.7208 32.096 44.5048 33.352 44.0728 34.44C43.6568 35.528 43.0808 36.44 42.3448 37.176C41.6248 37.896 40.7768 38.44 39.8008 38.808C38.8248 39.176 37.7848 39.36 36.6808 39.36C35.5768 39.36 34.5288 39.176 33.5368 38.808C32.5608 38.44 31.7048 37.896 30.9688 37.176C30.2488 36.44 29.6728 35.528 29.2408 34.44C28.8088 33.352 28.5928 32.096 28.5928 30.672C28.5928 29.248 28.8088 28 29.2408 26.928C29.6728 25.84 30.2568 24.928 30.9928 24.192C31.7448 23.456 32.6088 22.904 33.5848 22.536C34.5608 22.168 35.5928 21.984 36.6808 21.984C37.7688 21.984 38.8008 22.168 39.7768 22.536C40.7528 22.904 41.6008 23.456 42.3208 24.192C43.0568 24.928 43.6408 25.84 44.0728 26.928C44.5048 28 44.7208 29.248 44.7208 30.672Z" fill="white"/>
</svg>
